<svg width="1920" height="1080" viewBox="0 0 1920 1080" fill="none" xmlns="http://www.w3.org/2000/svg">
<g clip-path="url(#clip0_3_93)">
<rect width="1920" height="1080" fill="#104DB3"/>
<g style="mix-blend-mode:soft-light" opacity="0.15">
<path d="M3449.96 -25H1308.94V933.4H3449.96V-25Z" fill="#353535"/>
<path d="M2229.23 933.4H871.613V3435.22H2229.23V933.4Z" fill="#353535"/>
<path d="M871.627 -25H-485.986V2347.2H871.627V-25Z" fill="#F6F6F6"/>
<path d="M871.613 933.4C121.839 933.4 -486 1566.4 -486 2347.21H871.613V933.4Z" fill="#838383"/>
<path d="M871.613 2347.21C1621.39 2347.21 2229.23 1714.21 2229.23 933.4H871.613V2347.21Z" fill="#A7A7A7"/>
<path d="M871.613 1404.85C1121.57 1404.85 1324.19 1193.85 1324.19 933.542H871.613V1404.85Z" fill="#DADADA"/>
<path d="M1324.2 1404.85C1574.16 1404.85 1776.77 1193.85 1776.77 933.542H1324.2V1404.85Z" fill="#F6F6F6"/>
<path d="M1776.91 1404.85C2026.87 1404.85 2229.49 1193.85 2229.49 933.542H1776.91V1404.85Z" fill="#353535"/>
<path d="M2229.23 933.4C2229.23 404.148 1817.14 -25 1308.92 -25V933.4H2229.23Z" fill="#B9B9B9"/>
<path d="M871.613 454.271H434.304V933.528H871.613V454.271Z" fill="#A7A7A7"/>
<path d="M871.613 -25H434.304V454.257H871.613V-25Z" fill="#B9B9B9"/>
<path d="M434.304 -25V454.271H871.613L434.304 -25Z" fill="#F6F6F6"/>
<path d="M434.428 454.271H-2.88037V933.528H434.428V454.271Z" fill="#B9B9B9"/>
<path d="M-2.88037 454.271V933.4H434.305L-2.88037 454.271Z" fill="#DADADA"/>
<path d="M434.428 -25H-2.88037V454.257H434.428V-25Z" fill="#353535"/>
<path d="M1324.19 -25H871.613V933.4H1324.19V-25Z" fill="#838383"/>
<path d="M1324.19 454.271H871.613V933.528H1324.19V454.271Z" fill="#353535"/>
</g>
</g>
<defs>
<clipPath id="clip0_3_93">
<rect width="1920" height="1080" fill="white"/>
</clipPath>
</defs>
</svg>
