<?xml version="1.0" encoding="UTF-8"?>
<svg id="Layer_1" xmlns="http://www.w3.org/2000/svg" viewBox="0 0 102.67 31.25">
  <path d="M.23,19.91C.23,13.39,4.94,8.52,11.99,8.52c6.05,0,10.08,3.57,10.63,8.57h-7.65c-.42-1.93-1.34-3.02-3.07-3.02-2.44,0-3.61,2.23-3.61,5.84s1.26,5.75,3.7,5.75c1.93,0,2.9-1.3,3.11-3.74h7.65c0,5.29-4.33,9.33-10.75,9.33C4.94,31.25.23,26.42.23,19.91Z"/>
  <path d="M24.59.54h8.15v30.04h-8.15V.54Z"/>
  <path d="M48.32,28.22h-.08c-1.43,1.97-3.7,2.9-6.47,2.9-4.12,0-7.14-2.23-7.14-6.43,0-4.75,3.65-6.13,7.77-6.6,4.54-.5,5.75-1.05,5.75-2.39,0-1.18-.55-2.06-2.27-2.06s-2.6,1.01-2.81,2.56h-7.52c.17-4.24,3.44-7.73,10.17-7.73,3.28,0,5.38.42,7.02,1.43,2.23,1.39,3.32,3.57,3.32,6.43v10.71c0,1.81.13,2.77.8,3.19v.34h-7.81c-.29-.5-.55-1.18-.71-2.35ZM48.37,22.8v-1.89c-.76.38-1.72.71-3.07,1.01-2.31.5-3.02,1.18-3.02,2.44,0,1.43,1.18,2.06,2.48,2.06,1.85,0,3.61-1.05,3.61-3.61Z"/>
  <path d="M57.27,10.16C57.27,4.32,61.72,0,67.35,0s10.08,4.33,10.08,10.17-4.45,10.17-10.08,10.17-10.08-4.33-10.08-10.17ZM75.41,10.16c0-4.83-3.45-8.4-8.07-8.4s-8.06,3.57-8.06,8.4,3.44,8.44,8.06,8.44,8.07-3.57,8.07-8.44ZM62.77,4.74h5.38c2.23,0,4.24,1.01,4.24,3.19,0,1.22-.63,2.14-1.76,2.56v.08c.97.34,1.3.97,1.51,1.81.29,1.26.08,2.6.55,2.81v.25h-3.4c-.29-.17-.21-1.47-.42-2.48-.17-.84-.55-1.13-1.47-1.13h-1.18v3.61h-3.44V4.74ZM66.21,9.45h1.43c.88,0,1.34-.34,1.34-1.05,0-.67-.38-1.01-1.34-1.01h-1.43v2.06Z"/>
  <path d="M89.4,22.89l-1.64,1.81v5.88h-7.81V.54h7.81v15l5.17-6.39h8.91l-7.14,7.9,7.98,13.53h-8.99l-4.29-7.69Z"/>
</svg>