<svg width="1280" height="310" viewBox="0 0 1280 310" fill="none" xmlns="http://www.w3.org/2000/svg">
<g clip-path="url(#clip0_28_40)">
<path d="M102.962 431.038C56.9719 431.038 20.0259 416.125 -7.87608 386.395C-35.6818 356.568 -49.6328 319.141 -49.6328 273.825C-49.6328 228.508 -35.9705 191.081 -8.742 161.255C18.4865 131.428 54.3742 116.612 98.9211 116.612C136.444 116.612 166.944 126.522 190.613 146.245C214.185 165.969 228.713 192.428 234.101 225.718H156.938C154.244 212.152 147.99 201.183 138.369 192.62C128.651 184.154 116.721 179.824 102.385 179.824C79.1973 179.824 61.3978 188.098 48.9862 204.743C36.5746 221.388 30.417 244.383 30.417 273.825C30.417 303.266 36.3822 325.78 48.4089 342.617C60.4356 359.455 78.0427 367.825 101.23 367.825C135.675 367.825 155.591 350.988 160.979 317.313H236.988C234.294 350.218 220.92 377.351 196.963 398.806C173.006 420.262 141.64 431.038 102.962 431.038Z" fill="black"/>
<path d="M272.394 422.377V7.50366H351.289V422.281H272.394V422.377Z" fill="black"/>
<path d="M590.861 422.377C587.013 417.374 583.934 406.31 581.625 389.28H580.47C572.003 402.076 561.131 411.89 547.95 418.914C534.769 425.841 516.392 429.401 492.82 429.401C461.454 429.401 436.342 421.511 417.388 405.636C398.434 389.761 389.005 367.343 389.005 338.383C389.005 309.422 399.492 286.042 420.371 271.995C441.249 257.852 470.69 248.134 508.599 242.65C536.404 238.802 555.358 234.857 565.461 230.72C575.467 226.679 580.566 219.366 580.566 208.975C580.566 198.584 576.333 189.54 567.77 183.19C559.303 176.84 546.892 173.665 530.632 173.665C494.648 173.665 475.501 187.616 473.192 215.422H402.956C404.111 187.231 415.56 163.755 437.208 145.186C458.856 126.616 490.222 117.38 531.209 117.38C614.722 117.38 656.479 153.941 656.479 227.063V378.504C656.479 400.922 659.943 414.68 666.966 419.683V422.57H590.958L590.861 422.377ZM511.966 374.174C533.614 374.174 550.74 368.594 563.344 357.337C575.948 346.08 582.202 332.802 582.202 317.312V272.669C573.735 277.672 555.358 283.541 527.072 290.083C504.654 295.087 488.779 300.859 479.542 307.209C470.306 313.56 465.591 323.373 465.591 336.555C465.591 361.666 481.081 374.27 511.966 374.27V374.174Z" fill="black"/>
<path d="M933.19 240.727C906.539 267.378 873.634 280.751 834.571 280.751C795.508 280.751 762.603 267.378 735.952 240.727C709.301 214.075 695.927 180.593 695.927 140.376C695.927 100.158 709.301 66.6761 735.952 40.0249C762.603 13.3737 795.508 0 834.571 0C873.634 0 906.539 13.3737 933.19 40.0249C959.841 66.6761 973.215 100.158 973.215 140.376C973.215 180.593 959.841 214.075 933.19 240.727ZM834.571 259.296C867.476 259.296 894.512 248.039 915.775 225.621C937.039 203.203 947.718 174.724 947.718 140.376C947.718 106.027 937.039 78.1255 915.775 55.7077C894.512 33.2899 867.38 22.0329 834.571 22.0329C801.762 22.0329 775.111 33.2899 753.655 55.7077C732.2 78.1255 721.424 106.412 721.424 140.376C721.424 174.339 732.2 202.722 753.655 225.332C775.111 247.943 802.051 259.296 834.571 259.296ZM775.304 213.498V64.9442H847.271C862.377 64.9442 874.981 68.7928 885.276 76.5861C895.474 84.2832 900.67 94.9629 900.67 108.529C900.67 126.329 892.203 138.163 875.173 143.936V145.09C886.815 148.554 894.127 157.502 897.206 171.741C897.976 176.36 898.553 182.132 898.938 188.867C899.323 195.602 899.9 200.798 900.67 204.262C901.44 207.725 902.594 209.842 904.134 210.612V213.498H864.686C863.147 212.728 861.03 201.279 858.336 179.246C857.181 166.065 849.388 159.522 835.148 159.522H815.425V213.498H775.4H775.304ZM815.425 96.8872V130.562H840.344C854.295 130.562 861.222 124.982 861.222 113.725C861.222 102.468 854.295 96.8872 840.344 96.8872H815.425Z" fill="black"/>
<path d="M1209.9 422.377L1126.39 286.62L1092.13 322.026V422.377H1013.82V7.50366H1092.13V237.262L1197.68 124.692H1292.26L1182.58 237.839L1305.54 422.377H1209.8H1209.9Z" fill="black"/>
</g>
<defs>
<clipPath id="clip0_28_40">
<rect width="1355.27" height="431.037" fill="white" transform="translate(-49.6328)"/>
</clipPath>
</defs>
</svg>
