<?xml version="1.0" encoding="utf-8"?>
<!-- Generator: Adobe Illustrator 27.5.0, SVG Export Plug-In . SVG Version: 6.00 Build 0)  -->
<svg version="1.1" id="Layer_1" xmlns="http://www.w3.org/2000/svg" xmlns:xlink="http://www.w3.org/1999/xlink" x="0px" y="0px"
	 viewBox="0 0 16 16" style="enable-background:new 0 0 16 16;" xml:space="preserve">
<style type="text/css">
	.st0{fill:#FFFFFF;}
</style>
<g>
	<path class="st0" d="M15.2,10c-0.4,0-0.8,0.3-0.8,0.8v1.5c0,1.2-1,2.2-2.2,2.2H3.8c-1.2,0-2.2-1-2.2-2.2v-1.5
		c0-0.4-0.3-0.8-0.8-0.8S0,10.3,0,10.8v1.5C0,14.3,1.7,16,3.8,16h8.5c2.1,0,3.8-1.7,3.8-3.8v-1.5C16,10.3,15.7,10,15.2,10z"/>
	<path class="st0" d="M7.5,10.8C7.5,10.8,7.5,10.8,7.5,10.8c0.1,0.1,0.1,0.1,0.2,0.1c0,0,0,0,0.1,0C7.8,11,7.9,11,8,11
		s0.2,0,0.3-0.1c0,0,0,0,0.1,0c0.1,0,0.1-0.1,0.2-0.1c0,0,0,0,0,0l3.2-3.5c0.3-0.3,0.3-0.8,0-1.1c-0.3-0.3-0.8-0.3-1.1,0l-2,2.1V0.8
		C8.8,0.3,8.4,0,8,0S7.2,0.3,7.2,0.8v7.6l-2-2.1C5,5.9,4.5,5.9,4.2,6.2C3.9,6.5,3.9,7,4.2,7.3L7.5,10.8z"/>
</g>
</svg>
