<?xml version="1.0" encoding="UTF-8"?>
<svg id="hat" xmlns="http://www.w3.org/2000/svg" viewBox="0 0 100.15 308.98">
  <ellipse cx="49.9" cy="34.08" rx="23.51" ry="22.01" fill="#fec90f"/>
  <path d="M65.05,63.35l.83.37c-1.37.35-2.82.66-4.33.91-3.46.59-7.26.91-11.26.91-3.3,0-6.47-.22-9.42-.63-2.63-.36-5.08-.87-7.31-1.51l2.54-1.08-11.05-11.49.71-2.85s.02-.02.04-.02c5.09-3.26,14.16-5.43,24.49-5.43,11.98,0,22.25,2.92,26.6,7.07.07.06.12.12.18.18h0s.61,1.35.61,1.35l-12.65,12.21Z" fill="#0a223a"/>
  <polygon points="43.05 227.54 60.88 228.51 55.26 180.61 43.05 227.54" fill="#0a223a"/>
  <path d="M24.82,231.42l6.2,46.34-8.14,17.26.39,13.96s11.25-11.63,12.41-16.68l1.55-61.85-12.41.97Z"/>
  <polygon points="75.04 231.61 85.51 277.95 85.51 297.92 94.82 308.01 98.11 293.85 91.13 277.76 86.29 221.14 75.04 231.61"/>
  <polyline points="14.59 150.46 13.28 157.44 9.5 169.37 17.06 174.02 19.97 150.75 14.59 150.46"/>
  <polygon points="81.92 151.34 75.09 151.48 79.89 172.13 87.74 167.91 81.63 156.43 81.92 151.34"/>
  <path d="M67.24,64.66l-16.92,16.09v.05l-.02-.02-.02.02v-.05l-16.92-16.09c3.86-.95,10.91-5.6,10.91-5.6v-10.69l6.03.65,6.03-.65v10.69s7.05,4.66,10.91,5.6Z" fill="#ffdbac"/>
  <polygon points="75.67 146.1 75.96 151.34 81.34 151.34 81.2 145.37 75.67 146.1" fill="#ffdbac"/>
  <polygon points="14.59 150.46 14.59 144.21 19.24 145.52 18.37 150.61 14.59 150.46" fill="#ffdbac"/>
  <polygon points="67.3 64.66 57.5 58.94 57.5 56.71 50.33 56.71 50.32 56.71 43.14 56.71 43.14 58.94 33.35 64.66 50.32 80.8 50.32 80.76 50.33 80.8 67.3 64.66"/>
  <rect x="50.17" y="56.7" width=".25" height="24.03" fill="#fbad18"/>
  <path d="M50.95,60.77l1.18-.4s.1.02.1.07v3.42s-.03.08-.08.08h-1.18s-.08-.03-.08-.08v-3.02s.02-.06.05-.07ZM48.32,61.73v2.13s.03.08.08.08h1.17s.08-.03.08-.08v-2.53c0-.05-.05-.09-.1-.07l-1.17.39s-.05.04-.05.07ZM52.19,57.57l.1.48-3.92,1.36s-.05.04-.05.07v1.02c0,.05.05.09.1.07l4.14-1.43.09.39c.01.06.09.08.13.03l1.47-1.58s.02-.11-.04-.13l-1.94-.38c-.05-.01-.1.04-.09.09Z" fill="#fbad18"/>
  <path d="M18.95,69.61c10.62,1.75,12.94,16.87,12.94,16.87l-4.36,20.8-4.51,39.99-9.6-3.49,1.89-28.5,3.78-7.42-.15-38.25" fill="#0f2d52"/>
  <path d="M31.9,86.48l-4.37,20.79-4.51,39.99-6.58-2.39,2.95-24.94,4.85-11.64s.59-.77.39-7.95c-.12-4.31-3.16-8.34-5.6-10.87l-.07-19.86c10.61,1.75,12.95,16.87,12.95,16.87Z" fill="#0a223a" opacity=".4"/>
  <path d="M72.33,114.83l-10.62-14.54,4.8-10.47c.73-13.23,12.94-20.07,12.94-20.07l-13.56-6.02-.83-.37,12.65-12.21-.61-1.34h0s-.11-.26-.11-.26l-.07.07-15.34,15.03-12.65,12.39-8.03-12.11-1.43-2.15-13.65-14.8-.02-.03-.02.06-.71,2.85,11.05,11.49-2.54,1.08-14.62,6.2c9.44,5.51,13.66,21.77,13.67,21.81h0s2.91,9.31,2.91,9.31l-12.36,18.91-15.56,106.45s10.03,11.63,43.77,11.05l1.4-43.67,2.67,43.23c18.04.44,33.01-8.58,33.01-8.58l-16.14-113.28Z" fill="#0f2d52"/>
  <path d="M78.92,80.56l-11.83,8.34c4.07-16.29,12.36-19.15,12.36-19.15l-1.16,35.63,3.64,6.54.15,34.47-8.58,1.16-3.2-40.72-4.65-22.69,5.53-15.71,8.29,1.3" fill="#0f2d52"/>
  <polygon points="43.05 68.54 35.68 76.88 53.9 84.25 43.05 68.54" fill="#0a223a" opacity=".4"/>
  <polygon points="57.2 68.64 64.76 76.1 51.77 82.5 48.96 76.39 57.2 68.64" fill="#0a223a" opacity=".4"/>
  <polygon points="33.5 88.8 65.2 88.8 60.4 100.29 33.5 88.8" fill="#0a223a" opacity=".4"/>
  <polyline points="25.81 47.97 38.78 61.56 53.9 84.25 51.38 237.14" fill="none" stroke="#fff" stroke-linejoin="round"/>
  <path d="M78.58,70.48s-8.58,5.82-11.63,17.74l11.05-4.36.58-13.38Z" fill="#0a223a" opacity=".4"/>
  <path d="M50.32,52.78v.05s-.04-.02-.07-.02c.02,0,.05-.02.07-.02Z"/>
  <path d="M50.25,52.81s-.04.02-.07.02v-.05s.04.02.07.02Z"/>
  <path d="M50.17,52.78v.05s.04-.02.07-.02c-.02,0-.05-.02-.07-.02Z"/>
  <path d="M50.24,52.81s.04.02.07.02v-.05s-.04.02-.07.02Z"/>
  <path d="M44.26,49.81v2.32c1.69,1.1,3.64,2.11,5.91,2.97.02,0,.04.02.07.02h.02s.05-.02.07-.02c2.31-.87,4.29-1.9,6.01-3.03v-2.32l-6.01-3.65-6.06,3.72Z" fill="#f1c27d" opacity=".4"/>
  <g>
    <path d="M69.76,35.81c-.04.16-.08.33-.14.49-.71,2.06-2.6,3.35-4.5,3.21-1.46,3.35-4.08,7.16-8.79,10.24-1.71,1.12-3.7,2.15-6.01,3.02h0s-.04.02-.07.03h-.02s-.05-.02-.07-.02h0c-2.27-.87-4.22-1.87-5.91-2.97-4.77-3.09-7.42-6.93-8.89-10.31-1.9.14-3.78-1.15-4.5-3.21-.06-.16-.1-.32-.14-.48-.55-2.27.54-4.57,2.58-5.27.07-.03.16-.05.24-.07.19-8.8,7.71-15.71,16.57-15.71.04,0,.08,0,.12,0,.04,0,.09,0,.12,0,8.87,0,16.38,6.91,16.57,15.71.08.02.16.04.25.07,2.04.7,3.12,2.99,2.57,5.27Z" fill="#ffdbac"/>
    <path d="M63.16,29.77s-1.1,7.92-8.51,4.51c0,0-.09-1.62,1.3-2.93.75-.71,1.93-1.33,3.78-1.57.95-.12,2.08-.14,3.43-.02Z" fill="#fff"/>
    <g>
      <path d="M60.91,31.91c0,1.38-1.12,2.51-2.51,2.51s-2.51-1.12-2.51-2.51c0-.2.02-.38.07-.56.75-.71,1.93-1.33,3.78-1.57.7.45,1.17,1.24,1.17,2.13Z"/>
      <circle cx="58.44" cy="31.91" r="1.75" fill="#6abdfd"/>
      <circle cx="59.28" cy="30.98" r=".87" fill="#fff"/>
    </g>
    <path d="M64.05,28.71c-.2.5-.63.85-.96,1.05-.59-.05-1.14-.08-1.65-.08-.31,0-.62,0-.9.02-1.27.02-3.8.41-4.58,1.58,1.08-.63,3.62-1.19,5.48-1.19.4,0,.8,0,1.23.04-.12.49-.35,1.31-.8,2.13-.89,1.62-2.21,2.17-3.84,2.45-.52.09-1.9.08-2.47-.08.76.49,1.78.58,3.43.39,2.61-.52,3.64-3.13,4-4.46.78-.42,1.06-1.85,1.06-1.85Z"/>
    <path d="M37.87,29.77s1.1,7.92,8.51,4.51c0,0,.09-1.62-1.3-2.93-.75-.71-1.93-1.33-3.78-1.57-.95-.12-2.08-.14-3.43-.02Z" fill="#fff"/>
    <g>
      <path d="M40.13,31.91c0,1.38,1.12,2.51,2.51,2.51s2.51-1.12,2.51-2.51c0-.2-.02-.38-.07-.56-.75-.71-1.93-1.33-3.78-1.57-.7.45-1.17,1.24-1.17,2.13Z"/>
      <circle cx="42.6" cy="31.91" r="1.75" fill="#6abdfd"/>
      <path d="M44.47,30.85s0,.08,0,.12c0,.49-.39.87-.87.87s-.87-.39-.87-.87c0-.33.18-.61.45-.75l1.28.63Z" fill="#fff"/>
    </g>
    <path d="M36.98,28.71c.2.5.63.85.96,1.05.59-.05,1.14-.08,1.65-.08.31,0,.62,0,.9.02,1.27.02,3.8.41,4.58,1.58-1.08-.63-3.62-1.19-5.48-1.19-.4,0-.8,0-1.23.04.12.49.35,1.31.8,2.13.89,1.62,2.21,2.17,3.84,2.45.52.09,1.9.08,2.47-.08-.76.49-1.78.58-3.43.39-2.61-.52-3.64-3.13-4-4.46-.78-.42-1.06-1.85-1.06-1.85Z"/>
    <path d="M58.65,25.98l-5.69,1.75c-.38.12-.46.62-.14.85l.32.23-1.25-.36c.47.44,2.47,1.24,2.47,1.24l8.07-3.56c-1.53-.58-3.78-.15-3.78-.15Z" fill="#fec90f"/>
    <path d="M40.94,25.98l5.69,1.75c.38.12.46.62.14.85l-.32.23,1.25-.36c-.47.44-2.47,1.24-2.47,1.24l-8.07-3.56c1.53-.58,3.78-.15,3.78-.15Z" fill="#fec90f"/>
    <path d="M50.32,42.46l1.65-1.01s-1.02-.24-1.65.29c-.63-.53-1.65-.29-1.65-.29l1.65,1.01h0s0,0,0,0h0s0,0,0,0Z" fill="#f1c27d"/>
    <g>
      <path d="M46.37,45.1s.34,1.71,3.95,1.82v-2.36s-2.31-.54-3.95.55Z" fill="#f1927d"/>
      <path d="M50.34,44.56v2.36c3.61-.11,3.95-1.82,3.95-1.82-1.64-1.09-3.95-.55-3.95-.55Z" fill="#f1927d"/>
    </g>
    <circle cx="53.59" cy="42.78" r=".32" fill="#8d5524"/>
    <g>
      <path d="M34.24,34.89c.02.1.11.16.2.16.01,0,.03,0,.04,0,.11-.02.18-.13.16-.24-.22-1.06-.65-1.79-1.25-2.2,0,0,0,0,0,0,0,0-.01,0-.01,0-.05-.03-.09-.08-.15-.11-.83-.46-1.66-.17-1.7-.15-.11.04-.16.16-.12.26.04.11.16.16.26.12,0,0,.61-.21,1.23.07-.37.41-1.13,1.41-.96,2.59.15,1.02.94,1.9,2.37,2.61.03.01.06.02.09.02.08,0,.15-.04.18-.11.05-.1,0-.23-.09-.28-1.3-.65-2.02-1.42-2.15-2.3-.15-1.05.6-1.99.9-2.31.46.37.79.98.98,1.87Z" fill="#f1c27d"/>
      <path d="M34.01,33.23h0s-.1-.02-.16-.02c-.12,0-.22.02-.32.07h0c-.3.12-.51.42-.51.77,0,.46.37.84.84.84.13,0,.26-.03.37-.09.15-.07.27-.19.35-.33l-.55-1.24Z" fill="#f1c27d" opacity=".4"/>
    </g>
    <g>
      <path d="M64.96,34.89c-.02.1-.11.16-.2.16-.01,0-.03,0-.04,0-.11-.02-.18-.13-.16-.24.22-1.06.65-1.79,1.25-2.2,0,0,0,0,0,0,0,0,.01,0,.01,0,.05-.03.09-.08.15-.11.83-.46,1.66-.17,1.7-.15.11.04.16.16.12.26-.04.11-.16.16-.26.12,0,0-.61-.21-1.23.07.37.41,1.13,1.41.96,2.59-.15,1.02-.94,1.9-2.37,2.61-.03.01-.06.02-.09.02-.08,0-.15-.04-.18-.11-.05-.1,0-.23.09-.28,1.3-.65,2.02-1.42,2.15-2.3.15-1.05-.6-1.99-.9-2.31-.46.37-.79.98-.98,1.87Z" fill="#f1c27d"/>
      <path d="M64.64,34.47c.07.14.2.26.35.33.12.06.24.09.37.09.47,0,.84-.38.84-.84,0-.35-.21-.65-.51-.77h0c-.1-.04-.21-.07-.32-.07-.06,0-.11,0-.16.02h0l-.55,1.24Z" fill="#f1c27d" opacity=".4"/>
    </g>
  </g>
  <path d="M31.61,42.06c7.76-1.76,9.26-17.32,9.28-17.47l.82.07c-.06.67-1.58,16.32-9.92,18.2-2.33.53-4.2.72-5.69.72" fill="#fec90f"/>
  <path d="M58.46,22.68s.68,7.95,6.11,9.31,8.24,4.27,7.37,8.53c0,0,3.1-5.33.39-9.4s-5.33-9.79-5.33-9.79l-8.53,1.36Z" fill="#fec90f"/>
  <path d="M66.61,37.76c-.69,0-1.38-.13-2.03-.45-3.7-1.82-4-11.95-4.01-12.38l.82-.02c.07,2.79.85,10.33,3.55,11.66,3.23,1.59,7.93-2.51,7.98-2.56l.55.62c-.17.15-3.58,3.13-6.86,3.13Z" fill="#fec90f"/>
  <path d="M36.84,24.6s.87,4-3.34,6.04c-4.22,2.04-4.58,5.53-4.73,6.18s1.67-11.12,1.67-11.12l6.4-1.09Z" fill="#fec90f"/>
  <path d="M37.28,25.4s-1.02,13.6-7.56,12.65" fill="none" stroke="#fec90f" stroke-miterlimit="10" stroke-width="1.84"/>
  <path d="M37.2,23.58s-.36,6.18-1.6,7.13-4.94.51-6.04,2.76-1.67-2.33-1.67-2.33l5.24-8.22,4.07.65Z" fill="#fec90f"/>
  <path d="M100.15,9.79s-32.28,17.37-49.83,18.08c-17.54.72-24.14.79-50.32-7.5,0,0,16.64-4.29,33.38-7.1l1.9-11.62,28.7-1.65,2.95,9.98c16.52-.23,33.21-.19,33.21-.19Z" fill="#0f2d52"/>
  <polygon points="33.38 13.27 50.32 18.61 66.94 9.98 65.64 5.82 49.74 9.31 34.22 7.85 33.38 13.27" fill="#d88219"/>
  <polygon points="49.78 8.38 49.27 3.22 63.82 .24 64.18 1.69 49.78 8.38" fill="#0a223a" opacity=".4"/>
  <path d="M50.32,19.44l.48,5.67s27.78-4.36,39.41-14.4l-24.72.15-15.17,7.75v.82Z" fill="#0a223a" opacity=".4"/>
  <path d="M66.74,41.77s.01,0,.02,0c.2-.01.34-.18.33-.37l-.18-3.08c-.01-.2-.18-.34-.37-.33-.2.01-.34.18-.33.37l.18,3.08c.01.19.17.33.35.33Z" fill="#fbad18"/>
  <polygon points="71.16 106.98 77.41 107.71 75.67 106.25 77.71 103.64 71.16 106.98" fill="#0a223a" opacity=".4"/>
</svg>