<svg width="1920" height="1080" viewBox="0 0 1920 1080" fill="none" xmlns="http://www.w3.org/2000/svg">
<g clip-path="url(#clip0_3_93)">
<rect width="1920" height="1080" fill="#104DB3"/>
<g style="mix-blend-mode:soft-light" opacity="0.15">
<path d="M1640.23 -162.6H282.613V2339.22H1640.23V-162.6Z" fill="#353535"/>
<path d="M2860.96 -162.6H1640.23V2339.22H2860.96V-162.6Z" fill="#686868"/>
<path d="M2860.96 -162.6H1640.23V1088.3L2860.96 -162.6Z" fill="#DADADA"/>
<path d="M282.627 -1121H-1074.99V1251.2H282.627V-1121Z" fill="#F6F6F6"/>
<path d="M282.613 -162.6C-467.161 -162.6 -1075 470.4 -1075 1251.21H282.613V-162.6Z" fill="#838383"/>
<path d="M282.613 1251.21C1032.39 1251.21 1640.23 618.21 1640.23 -162.6H282.613V1251.21Z" fill="#A7A7A7"/>
<path d="M282.613 308.851C532.575 308.851 735.188 97.8507 735.188 -162.458H282.613V308.851Z" fill="#DADADA"/>
<path d="M735.201 308.851C985.162 308.851 1187.77 97.8507 1187.77 -162.458H735.201V308.851Z" fill="#F6F6F6"/>
<path d="M1187.91 308.851C1437.87 308.851 1640.49 97.8507 1640.49 -162.458H1187.91V308.851Z" fill="#353535"/>
<path d="M735.201 780.03C735.201 519.722 532.588 308.722 282.627 308.722V1251.35C532.588 1251.35 735.201 1040.35 735.201 780.045V780.03Z" fill="#353535"/>
<path d="M557.56 780.03C557.56 621.841 434.515 493.717 282.627 493.717V1066.36C434.528 1066.23 557.56 938.091 557.56 780.045V780.03Z" fill="#B9B9B9"/>
<path d="M126.195 870.155C212.582 870.155 282.613 797.225 282.613 707.262C282.613 617.299 212.582 544.369 126.195 544.369C39.8074 544.369 -30.2233 617.299 -30.2233 707.262C-30.2233 797.225 39.8074 870.155 126.195 870.155Z" fill="#F6F6F6"/>
<path d="M126.195 771.267C160.139 771.267 187.656 742.611 187.656 707.262C187.656 671.913 160.139 643.257 126.195 643.257C92.2515 643.257 64.7346 671.913 64.7346 707.262C64.7346 742.611 92.2515 771.267 126.195 771.267Z" fill="#A7A7A7"/>
<path d="M126.195 326.221C212.582 326.221 282.613 253.291 282.613 163.328C282.613 73.365 212.582 0.435425 126.195 0.435425C39.8074 0.435425 -30.2233 73.365 -30.2233 163.328C-30.2233 253.291 39.8074 326.221 126.195 326.221Z" fill="#F6F6F6"/>
<path d="M2060.47 129.918C2215.6 129.918 2341.36 -1.04709 2341.36 -162.6C2341.36 -324.153 2215.6 -455.118 2060.47 -455.118C1905.34 -455.118 1779.58 -324.153 1779.58 -162.6C1779.58 -1.04709 1905.34 129.918 2060.47 129.918Z" fill="#353535"/>
<path d="M2060.47 35.3327C2165.44 35.3327 2250.54 -53.2849 2250.54 -162.6C2250.54 -271.916 2165.44 -360.534 2060.47 -360.534C1955.5 -360.534 1870.4 -271.916 1870.4 -162.6C1870.4 -53.2849 1955.5 35.3327 2060.47 35.3327Z" fill="#F6F6F6"/>
<path d="M1640.49 1251.34V1099.08C1555.48 1099.08 1486.65 1027.4 1486.65 938.877C1486.65 850.354 1555.48 778.672 1640.49 778.672V626.416C1474.75 626.416 1340.45 766.277 1340.45 938.877C1340.45 1111.48 1474.75 1251.34 1640.49 1251.34Z" fill="#838383"/>
<path d="M1813.86 266.805H1639.58V676.41H1813.86V266.805Z" fill="#B9B9B9"/>
<path d="M1640.49 153.621V305.877C1725.49 305.877 1794.32 377.559 1794.32 466.082C1794.32 554.605 1725.49 626.287 1640.49 626.287V778.544C1806.23 778.544 1940.53 638.682 1940.53 466.082C1940.53 293.482 1806.23 153.621 1640.49 153.621Z" fill="#686868"/>
</g>
</g>
<defs>
<clipPath id="clip0_3_93">
<rect width="1920" height="1080" fill="white"/>
</clipPath>
</defs>
</svg>
