<svg viewBox="0 0 360 200" xmlns="http://www.w3.org/2000/svg" aria-label="Crosshair grid">
  <!-- Row 1 -->
  <!-- P(1,1) -->
  <line x1="54" y1="38" x2="66" y2="38" stroke="#bbb" stroke-width="1"/>
  <line x1="60" y1="32" x2="60" y2="44" stroke="#bbb" stroke-width="1"/>
  <circle cx="60" cy="38" r="2" stroke="#999" stroke-width="1" fill="none"/>

  <!-- P(1,2) — with bracket overlay and slightly bolder (active) -->
  <line x1="121" y1="42" x2="137" y2="42" stroke="#888" stroke-width="1.5"/>
  <line x1="129" y1="34" x2="129" y2="50" stroke="#888" stroke-width="1.5"/>
  <circle cx="129" cy="42" r="2.5" stroke="#777" stroke-width="1" fill="none"/>
  <!-- Corner brackets -->
  <path d="M122,35 L122,39 M122,35 L126,35" stroke="#888" stroke-width="1" fill="none"/>
  <path d="M136,35 L132,35 M136,35 L136,39" stroke="#888" stroke-width="1" fill="none"/>
  <path d="M122,49 L122,45 M122,49 L126,49" stroke="#888" stroke-width="1" fill="none"/>
  <path d="M136,49 L132,49 M136,49 L136,45" stroke="#888" stroke-width="1" fill="none"/>
  <text x="140" y="40" font-family="'Courier New', monospace" font-size="5" fill="#bbb" letter-spacing="0.05em">P·1.4</text>

  <!-- P(1,3) -->
  <line x1="195" y1="36" x2="209" y2="36" stroke="#bbb" stroke-width="1"/>
  <line x1="202" y1="29" x2="202" y2="43" stroke="#bbb" stroke-width="1"/>
  <circle cx="202" cy="36" r="2" stroke="#999" stroke-width="1" fill="none"/>

  <!-- P(1,4) — with brackets -->
  <line x1="271" y1="40" x2="283" y2="40" stroke="#bbb" stroke-width="1"/>
  <line x1="277" y1="34" x2="277" y2="46" stroke="#bbb" stroke-width="1"/>
  <circle cx="277" cy="40" r="2" stroke="#999" stroke-width="1" fill="none"/>
  <path d="M272,35 L272,38 M272,35 L275,35" stroke="#bbb" stroke-width="0.8" fill="none"/>
  <path d="M282,35 L279,35 M282,35 L282,38" stroke="#bbb" stroke-width="0.8" fill="none"/>
  <path d="M272,45 L272,42 M272,45 L275,45" stroke="#bbb" stroke-width="0.8" fill="none"/>
  <path d="M282,45 L279,45 M282,45 L282,42" stroke="#bbb" stroke-width="0.8" fill="none"/>

  <!-- Row 2 -->
  <!-- P(2,1) -->
  <line x1="38" y1="98" x2="50" y2="98" stroke="#bbb" stroke-width="1"/>
  <line x1="44" y1="92" x2="44" y2="104" stroke="#bbb" stroke-width="1"/>
  <circle cx="44" cy="98" r="2" stroke="#999" stroke-width="1" fill="none"/>
  <text x="54" y="96" font-family="'Courier New', monospace" font-size="5" fill="#bbb" letter-spacing="0.05em">P·2.1</text>

  <!-- P(2,2) -->
  <line x1="120" y1="104" x2="134" y2="104" stroke="#bbb" stroke-width="1"/>
  <line x1="127" y1="97" x2="127" y2="111" stroke="#bbb" stroke-width="1"/>
  <circle cx="127" cy="104" r="2" stroke="#999" stroke-width="1" fill="none"/>

  <!-- P(2,3) -->
  <line x1="196" y1="96" x2="210" y2="96" stroke="#bbb" stroke-width="1"/>
  <line x1="203" y1="90" x2="203" y2="102" stroke="#bbb" stroke-width="1"/>
  <circle cx="203" cy="96" r="2" stroke="#999" stroke-width="1" fill="none"/>

  <!-- P(2,4) -->
  <line x1="273" y1="101" x2="285" y2="101" stroke="#bbb" stroke-width="1"/>
  <line x1="279" y1="94" x2="279" y2="108" stroke="#bbb" stroke-width="1"/>
  <circle cx="279" cy="101" r="2" stroke="#999" stroke-width="1" fill="none"/>
  <text x="288" y="99" font-family="'Courier New', monospace" font-size="5" fill="#bbb" letter-spacing="0.05em">P·2.4</text>

  <!-- Row 3 -->
  <!-- P(3,1) -->
  <line x1="55" y1="158" x2="69" y2="158" stroke="#bbb" stroke-width="1"/>
  <line x1="62" y1="151" x2="62" y2="165" stroke="#bbb" stroke-width="1"/>
  <circle cx="62" cy="158" r="2" stroke="#999" stroke-width="1" fill="none"/>

  <!-- P(3,2) -->
  <line x1="128" y1="162" x2="142" y2="162" stroke="#bbb" stroke-width="1"/>
  <line x1="135" y1="156" x2="135" y2="168" stroke="#bbb" stroke-width="1"/>
  <circle cx="135" cy="162" r="2" stroke="#999" stroke-width="1" fill="none"/>
  <text x="145" y="160" font-family="'Courier New', monospace" font-size="5" fill="#bbb" letter-spacing="0.05em">P·3.2</text>

  <!-- P(3,3) — with brackets -->
  <line x1="201" y1="155" x2="215" y2="155" stroke="#bbb" stroke-width="1"/>
  <line x1="208" y1="148" x2="208" y2="162" stroke="#bbb" stroke-width="1"/>
  <circle cx="208" cy="155" r="2" stroke="#999" stroke-width="1" fill="none"/>
  <path d="M202,149 L202,153 M202,149 L206,149" stroke="#bbb" stroke-width="0.8" fill="none"/>
  <path d="M214,149 L210,149 M214,149 L214,153" stroke="#bbb" stroke-width="0.8" fill="none"/>
  <path d="M202,161 L202,157 M202,161 L206,161" stroke="#bbb" stroke-width="0.8" fill="none"/>
  <path d="M214,161 L210,161 M214,161 L214,157" stroke="#bbb" stroke-width="0.8" fill="none"/>

  <!-- P(3,4) -->
  <line x1="276" y1="159" x2="288" y2="159" stroke="#bbb" stroke-width="1"/>
  <line x1="282" y1="153" x2="282" y2="165" stroke="#bbb" stroke-width="1"/>
  <circle cx="282" cy="159" r="2" stroke="#999" stroke-width="1" fill="none"/>
</svg>
