<svg viewBox="0 0 480 64" xmlns="http://www.w3.org/2000/svg" aria-label="Waveform bar">
  <!-- Left bracket -->
  <path d="M8,24 L8,48 M8,36 L14,36" stroke="#bbb" stroke-width="1" fill="none"/>
  <!-- Right bracket -->
  <path d="M472,24 L472,48 M472,36 L466,36" stroke="#bbb" stroke-width="1" fill="none"/>

  <!-- Horizontal baseline at y=40 -->
  <line x1="14" y1="40" x2="466" y2="40" stroke="#999" stroke-width="1"/>

  <!-- 60 ticks evenly spaced from x=18 to x=462, spacing=7.5 -->
  <!-- Short ticks: 8px tall (y=32 to y=40), color #ccc -->
  <!-- Every 5th: 16px tall (y=24 to y=40), color #999 -->
  <!-- Every 10th: 24px tall (y=16 to y=40), color #888 -->

  <line x1="18" y1="32" x2="18" y2="40" stroke="#ccc" stroke-width="1"/>
  <line x1="25.5" y1="32" x2="25.5" y2="40" stroke="#ccc" stroke-width="1"/>
  <line x1="33" y1="32" x2="33" y2="40" stroke="#ccc" stroke-width="1"/>
  <line x1="40.5" y1="32" x2="40.5" y2="40" stroke="#ccc" stroke-width="1"/>
  <line x1="48" y1="24" x2="48" y2="40" stroke="#999" stroke-width="1"/>
  <line x1="55.5" y1="32" x2="55.5" y2="40" stroke="#ccc" stroke-width="1"/>
  <line x1="63" y1="32" x2="63" y2="40" stroke="#ccc" stroke-width="1"/>
  <line x1="70.5" y1="32" x2="70.5" y2="40" stroke="#ccc" stroke-width="1"/>
  <line x1="78" y1="32" x2="78" y2="40" stroke="#ccc" stroke-width="1"/>
  <line x1="85.5" y1="16" x2="85.5" y2="40" stroke="#888" stroke-width="1"/>
  <line x1="93" y1="32" x2="93" y2="40" stroke="#ccc" stroke-width="1"/>
  <line x1="100.5" y1="32" x2="100.5" y2="40" stroke="#ccc" stroke-width="1"/>
  <line x1="108" y1="32" x2="108" y2="40" stroke="#ccc" stroke-width="1"/>
  <line x1="115.5" y1="32" x2="115.5" y2="40" stroke="#ccc" stroke-width="1"/>
  <line x1="123" y1="24" x2="123" y2="40" stroke="#999" stroke-width="1"/>
  <line x1="130.5" y1="32" x2="130.5" y2="40" stroke="#ccc" stroke-width="1"/>
  <line x1="138" y1="32" x2="138" y2="40" stroke="#ccc" stroke-width="1"/>
  <line x1="145.5" y1="32" x2="145.5" y2="40" stroke="#ccc" stroke-width="1"/>
  <line x1="153" y1="32" x2="153" y2="40" stroke="#ccc" stroke-width="1"/>
  <line x1="160.5" y1="16" x2="160.5" y2="40" stroke="#888" stroke-width="1"/>
  <line x1="168" y1="32" x2="168" y2="40" stroke="#ccc" stroke-width="1"/>
  <line x1="175.5" y1="32" x2="175.5" y2="40" stroke="#ccc" stroke-width="1"/>
  <line x1="183" y1="32" x2="183" y2="40" stroke="#ccc" stroke-width="1"/>
  <line x1="190.5" y1="32" x2="190.5" y2="40" stroke="#ccc" stroke-width="1"/>
  <line x1="198" y1="24" x2="198" y2="40" stroke="#999" stroke-width="1"/>
  <line x1="205.5" y1="32" x2="205.5" y2="40" stroke="#ccc" stroke-width="1"/>
  <line x1="213" y1="32" x2="213" y2="40" stroke="#ccc" stroke-width="1"/>
  <line x1="220.5" y1="32" x2="220.5" y2="40" stroke="#ccc" stroke-width="1"/>
  <line x1="228" y1="32" x2="228" y2="40" stroke="#ccc" stroke-width="1"/>
  <line x1="235.5" y1="16" x2="235.5" y2="40" stroke="#888" stroke-width="1"/>
  <line x1="243" y1="32" x2="243" y2="40" stroke="#ccc" stroke-width="1"/>
  <line x1="250.5" y1="32" x2="250.5" y2="40" stroke="#ccc" stroke-width="1"/>
  <line x1="258" y1="32" x2="258" y2="40" stroke="#ccc" stroke-width="1"/>
  <line x1="265.5" y1="32" x2="265.5" y2="40" stroke="#ccc" stroke-width="1"/>
  <line x1="273" y1="24" x2="273" y2="40" stroke="#999" stroke-width="1"/>
  <line x1="280.5" y1="32" x2="280.5" y2="40" stroke="#ccc" stroke-width="1"/>
  <line x1="288" y1="32" x2="288" y2="40" stroke="#ccc" stroke-width="1"/>
  <line x1="295.5" y1="32" x2="295.5" y2="40" stroke="#ccc" stroke-width="1"/>
  <line x1="303" y1="32" x2="303" y2="40" stroke="#ccc" stroke-width="1"/>
  <line x1="310.5" y1="16" x2="310.5" y2="40" stroke="#888" stroke-width="1"/>
  <line x1="318" y1="32" x2="318" y2="40" stroke="#ccc" stroke-width="1"/>
  <line x1="325.5" y1="32" x2="325.5" y2="40" stroke="#ccc" stroke-width="1"/>
  <line x1="333" y1="32" x2="333" y2="40" stroke="#ccc" stroke-width="1"/>
  <line x1="340.5" y1="32" x2="340.5" y2="40" stroke="#ccc" stroke-width="1"/>
  <line x1="348" y1="24" x2="348" y2="40" stroke="#999" stroke-width="1"/>
  <line x1="355.5" y1="32" x2="355.5" y2="40" stroke="#ccc" stroke-width="1"/>
  <line x1="363" y1="32" x2="363" y2="40" stroke="#ccc" stroke-width="1"/>
  <line x1="370.5" y1="32" x2="370.5" y2="40" stroke="#ccc" stroke-width="1"/>
  <line x1="378" y1="32" x2="378" y2="40" stroke="#ccc" stroke-width="1"/>
  <line x1="385.5" y1="16" x2="385.5" y2="40" stroke="#888" stroke-width="1"/>
  <line x1="393" y1="32" x2="393" y2="40" stroke="#ccc" stroke-width="1"/>
  <line x1="400.5" y1="32" x2="400.5" y2="40" stroke="#ccc" stroke-width="1"/>
  <line x1="408" y1="32" x2="408" y2="40" stroke="#ccc" stroke-width="1"/>
  <line x1="415.5" y1="32" x2="415.5" y2="40" stroke="#ccc" stroke-width="1"/>
  <line x1="423" y1="24" x2="423" y2="40" stroke="#999" stroke-width="1"/>
  <line x1="430.5" y1="32" x2="430.5" y2="40" stroke="#ccc" stroke-width="1"/>
  <line x1="438" y1="32" x2="438" y2="40" stroke="#ccc" stroke-width="1"/>
  <line x1="445.5" y1="32" x2="445.5" y2="40" stroke="#ccc" stroke-width="1"/>
  <line x1="453" y1="32" x2="453" y2="40" stroke="#ccc" stroke-width="1"/>
  <line x1="460.5" y1="16" x2="460.5" y2="40" stroke="#888" stroke-width="1"/>

  <!-- Dark pill with LIVE label (centered below baseline) -->
  <rect x="200" y="47" width="80" height="14" rx="2" fill="#1a1a1a"/>
  <text x="240" y="57" font-family="'Courier New', monospace" font-size="5" fill="#fff" text-anchor="middle" letter-spacing="0.08em">◌ LIVE</text>
</svg>
